<svg width="30" height="28" viewBox="0 0 30 28" fill="none" xmlns="http://www.w3.org/2000/svg">
<path d="M15 14.479C13.5785 14.479 12.1888 14.0575 11.0068 13.2677C9.82486 12.4779 8.90362 11.3554 8.35962 10.042C7.81561 8.7287 7.67328 7.28353 7.95061 5.88929C8.22794 4.49506 8.91248 3.21437 9.91767 2.20918C10.9229 1.20399 12.2036 0.519444 13.5978 0.242113C14.992 -0.0352183 16.4372 0.107118 17.7505 0.651123C19.0639 1.19513 20.1864 2.11637 20.9762 3.29835C21.766 4.48032 22.1875 5.86995 22.1875 7.29151C22.1875 9.19775 21.4303 11.0259 20.0823 12.3738C18.7344 13.7218 16.9062 14.479 15 14.479ZM15 2.97901C14.1471 2.97901 13.3133 3.23193 12.6041 3.70579C11.8949 4.17966 11.3422 4.85318 11.0158 5.64118C10.6894 6.42919 10.604 7.29629 10.7704 8.13283C10.9368 8.96938 11.3475 9.73779 11.9506 10.3409C12.5537 10.944 13.3221 11.3547 14.1587 11.5211C14.9952 11.6875 15.8623 11.6021 16.6503 11.2757C17.4383 10.9493 18.1119 10.3966 18.5857 9.6874C19.0596 8.97822 19.3125 8.14444 19.3125 7.29151C19.3125 6.14776 18.8582 5.05086 18.0494 4.24211C17.2407 3.43336 16.1438 2.97901 15 2.97901Z" fill="white"/>
<path d="M28.4168 27.8957C28.0371 27.8907 27.6744 27.7377 27.4059 27.4691C27.1373 27.2006 26.9843 26.8379 26.9793 26.4582C26.9793 22.7207 24.9477 20.229 15.0002 20.229C5.05266 20.229 3.021 22.7207 3.021 26.4582C3.021 26.8394 2.86955 27.2051 2.59996 27.4746C2.33038 27.7442 1.96474 27.8957 1.5835 27.8957C1.20225 27.8957 0.836614 27.7442 0.56703 27.4746C0.297446 27.2051 0.145996 26.8394 0.145996 26.4582C0.145996 17.354 10.5535 17.354 15.0002 17.354C19.4468 17.354 29.8543 17.354 29.8543 26.4582C29.8494 26.8379 29.6963 27.2006 29.4278 27.4691C29.1593 27.7377 28.7965 27.8907 28.4168 27.8957Z" fill="white"/>
</svg>
