<svg width="113" height="61" viewBox="0 0 113 61" fill="none" xmlns="http://www.w3.org/2000/svg">
<rect width="112.71" height="60.1534" transform="matrix(0.999983 0.00579774 -0.00484514 0.999988 0.291504 0)" fill="#1D01EF"/>
<path d="M57 30.479C55.5785 30.479 54.1888 30.0575 53.0068 29.2677C51.8249 28.4779 50.9036 27.3554 50.3596 26.042C49.8156 24.7287 49.6733 23.2835 49.9506 21.8893C50.2279 20.4951 50.9125 19.2144 51.9177 18.2092C52.9229 17.204 54.2036 16.5194 55.5978 16.2421C56.992 15.9648 58.4372 16.1071 59.7505 16.6511C61.0639 17.1951 62.1864 18.1164 62.9762 19.2983C63.766 20.4803 64.1875 21.87 64.1875 23.2915C64.1875 25.1977 63.4303 27.0259 62.0823 28.3738C60.7344 29.7218 58.9062 30.479 57 30.479ZM57 18.979C56.1471 18.979 55.3133 19.2319 54.6041 19.7058C53.8949 20.1797 53.3422 20.8532 53.0158 21.6412C52.6894 22.4292 52.604 23.2963 52.7704 24.1328C52.9368 24.9694 53.3475 25.7378 53.9506 26.3409C54.5537 26.944 55.3221 27.3547 56.1587 27.5211C56.9952 27.6875 57.8623 27.6021 58.6503 27.2757C59.4383 26.9493 60.1119 26.3966 60.5857 25.6874C61.0596 24.9782 61.3125 24.1444 61.3125 23.2915C61.3125 22.1478 60.8582 21.0509 60.0494 20.2421C59.2407 19.4334 58.1438 18.979 57 18.979Z" fill="white"/>
<path d="M70.4168 43.8957C70.0371 43.8907 69.6744 43.7377 69.4059 43.4691C69.1373 43.2006 68.9843 42.8379 68.9793 42.4582C68.9793 38.7207 66.9477 36.229 57.0002 36.229C47.0527 36.229 45.021 38.7207 45.021 42.4582C45.021 42.8394 44.8695 43.2051 44.6 43.4746C44.3304 43.7442 43.9647 43.8957 43.5835 43.8957C43.2022 43.8957 42.8366 43.7442 42.567 43.4746C42.2974 43.2051 42.146 42.8394 42.146 42.4582C42.146 33.354 52.5535 33.354 57.0002 33.354C61.4468 33.354 71.8543 33.354 71.8543 42.4582C71.8494 42.8379 71.6963 43.2006 71.4278 43.4691C71.1593 43.7377 70.7965 43.8907 70.4168 43.8957Z" fill="white"/>
</svg>
